<?xml version="1.0" encoding="UTF-8" standalone="no"?>
<svg
   xmlns:dc="http://purl.org/dc/elements/1.1/"
   xmlns:cc="http://creativecommons.org/ns#"
   xmlns:rdf="http://www.w3.org/1999/02/22-rdf-syntax-ns#"
   xmlns:svg="http://www.w3.org/2000/svg"
   xmlns="http://www.w3.org/2000/svg"
   viewBox="891 532 778 378"
   height="378"
   width="778"
   xml:space="preserve"
   id="svg2"
   version="1.1"><metadata
     id="metadata8"><rdf:RDF><cc:Work
         rdf:about=""><dc:format>image/svg+xml</dc:format><dc:type
           rdf:resource="http://purl.org/dc/dcmitype/StillImage" /></cc:Work></rdf:RDF></metadata><defs
     id="defs6"><clipPath
       id="clipPath18"
       clipPathUnits="userSpaceOnUse"><path
         id="path16"
         d="M 0,1080 H 1920 V 0 H 0 Z" /></clipPath></defs><g
     transform="matrix(1.3333333,0,0,-1.3333333,0,1440)"
     id="g10"><g
       id="g12"><g
         clip-path="url(#clipPath18)"
         id="g14"><g
           transform="translate(854.4545,515.9702)"
           id="g20"><path
             id="path22"
             style="fill:currentColor;fill-opacity:1;fill-rule:nonzero;stroke:none"
             d="m 0,0 c 0.034,0.981 -0.037,2.221 -0.888,3.102 -0.677,0.7 -1.644,1.012 -3.14,1.012 -14.921,-0.063 -30.054,-0.063 -44.981,0 -3.662,0 -4.156,-2.121 -4.156,-4.196 v -52.984 c 0,-0.771 -0.007,-1.55 -0.015,-2.332 -0.014,-1.567 -0.03,-3.188 0.017,-4.81 0.016,-0.305 -0.023,-0.436 -0.016,-0.45 -0.035,-0.017 -0.166,-0.068 -0.495,-0.084 -0.595,-0.044 -1.183,-0.096 -1.774,-0.149 -1.141,-0.101 -2.218,-0.196 -3.346,-0.237 -9.693,-0.446 -19.716,-0.906 -29.43,1.012 -11.421,2.275 -18.918,8.146 -22.285,17.453 -1.798,4.939 -2.83,9.626 -3.068,13.933 -0.665,11.642 -0.935,23.48 -0.801,35.186 0.064,6.646 0.754,13.567 2.053,20.568 2.193,11.57 9.083,18.59 20.48,20.866 4.887,0.973 9.827,1.466 14.694,1.466 17.786,0.233 36.759,-1.268 59.705,-4.718 1.674,-0.259 3.662,-0.161 4.155,2.932 1.777,11.737 3.64,23.645 5.441,35.161 l 0.725,4.629 c 0.595,3.476 0.003,4.327 -3.521,5.056 -15.108,3.089 -30.487,4.042 -43.538,4.567 -1.034,0.041 -2.106,0.142 -3.167,0.242 -0.534,0.05 -1.068,0.1 -1.599,0.143 l -0.058,0.005 -28.062,-0.005 c -0.054,0 -0.107,-0.003 -0.16,-0.008 -0.672,-0.061 -1.344,-0.125 -2.015,-0.189 -2.132,-0.204 -4.337,-0.415 -6.547,-0.516 -13.406,-1.152 -24.059,-3.471 -33.527,-7.296 -17.35,-7.003 -29.618,-19.888 -36.462,-38.299 -4.857,-13.067 -7.378,-27.724 -7.933,-46.147 0,-0.327 -0.092,-0.724 -0.189,-1.146 -0.04,-0.172 -0.079,-0.343 -0.115,-0.514 l -0.029,-16.109 0.045,-0.352 c 0.036,-0.143 0.077,-0.286 0.119,-0.43 0.087,-0.301 0.169,-0.586 0.17,-0.813 l 0.008,-0.118 c 0.358,-3.227 0.669,-6.527 0.97,-9.718 0.601,-6.375 1.223,-12.968 2.256,-19.401 1.75,-11.099 5.515,-21.355 11.191,-30.482 8.968,-14.482 22.589,-23.683 41.642,-28.13 11.896,-2.757 24.662,-4.097 39.025,-4.097 3.432,0 7.009,0.079 10.63,0.235 1.968,0.084 3.935,0.162 5.902,0.239 l 0.324,0.013 c 6.996,0.275 14.231,0.56 21.307,1.113 13.411,0.987 25.429,2.715 36.737,5.282 2.656,0.582 3.788,2.003 3.788,4.76 -0.133,14.78 -0.133,29.777 -0.133,44.281 0,16.547 0,33.658 0.066,50.474" /></g><g
           transform="translate(1214.1005,614.0446)"
           id="g24"><path
             id="path26"
             style="fill:currentColor;fill-opacity:1;fill-rule:nonzero;stroke:none"
             d="m 0,0 c -2.769,-11.504 -7.505,-21.709 -14.076,-30.332 -3.757,-4.924 -9.326,-6.727 -16.096,-5.216 -11.731,2.663 -22.868,7.113 -33.103,13.227 -3.225,1.914 -6.812,4.282 -8.56,8.188 -0.384,0.847 -0.738,1.814 -1.086,2.765 l -0.117,0.323 -0.073,0.043 c 0.028,0.577 0.035,1.156 0.042,1.734 0.017,1.374 0.034,2.795 0.349,4.078 2.644,10.632 7.085,20.472 13.202,29.247 4.043,5.785 9.903,8.009 16.946,6.433 11.374,-2.549 22.089,-6.743 31.857,-12.471 1.756,-1.017 3.746,-2.168 5.446,-3.52 C -0.383,10.642 1.389,5.764 0,0 M 25.03,10.273 C 23.801,15.996 21.242,21.277 17.206,26.418 12.433,32.478 5.87,36.309 0.096,39.422 -14.69,47.46 -27.47,52.12 -40.127,54.087 -57.366,56.72 -71.051,51.017 -80.798,37.132 -87.952,26.852 -93.188,15.523 -96.802,2.5 c -4.654,-16.693 1.914,-33.516 16.734,-42.86 12.948,-8.086 27.148,-14.107 42.205,-17.897 5.91,-1.473 11.203,-1.943 16.18,-1.437 1.317,0.134 2.626,0.34 3.901,0.614 l 0.01,-0.047 0.941,0.202 c 9.974,2.121 17.631,6.942 23.407,14.734 8.687,11.607 14.573,24.35 17.996,38.971 C 25.85,0.646 26,5.714 25.03,10.273" /></g><g
           transform="translate(1087.869,524.7863)"
           id="g28"><path
             id="path30"
             style="fill:currentColor;fill-opacity:1;fill-rule:nonzero;stroke:none"
             d="m 0,0 c -1.623,0.009 -3.247,0.019 -4.886,0.024 -1.227,-0.002 -2.454,0.001 -3.729,0.004 -2.416,0.007 -4.914,0.013 -7.384,-0.031 -0.008,-0.001 -0.018,-0.001 -0.026,-0.001 -0.001,0.023 0,0.047 10e-4,0.072 0.223,9.05 0.372,17.386 0.454,25.498 -10e-4,0.011 0,0.022 -10e-4,0.033 5.339,-0.044 10.773,-0.057 16.05,-0.07 h 0.127 c 5.234,-0.013 10.642,-0.027 15.966,-0.071 4.191,0.001 6.879,-1.481 8.158,-9.003 0.023,-0.135 0.031,-0.272 0.022,-0.408 C 24.716,15.48 24.683,14.817 24.646,14.072 24.529,11.718 24.37,8.494 23.929,5.384 23.433,2.168 20.937,0.132 17.4,0.056 11.578,-0.066 5.692,-0.032 0,0 m 44.445,-2.445 c 1.838,5.957 2.472,12.333 1.997,20.066 -0.292,4.894 -0.993,10.623 -3.97,16.017 C 37.835,41.94 31.218,45.943 22.243,45.876 4.246,45.77 -13.51,45.875 -33.2,46.012 c -2.961,-0.014 -4.423,-1.443 -4.476,-4.37 -0.054,-7.697 -0.166,-15.51 -0.273,-23.066 -0.054,-3.828 -0.109,-7.655 -0.156,-11.476 -0.172,-11.175 -0.377,-24.173 -0.636,-37.009 -0.022,-0.463 -0.09,-1.875 0.912,-2.912 0.65,-0.671 1.555,-1.004 2.689,-0.989 4.761,0.044 9.425,0.035 15.048,0.02 2.41,0.066 3.787,1.47 3.764,3.837 0.006,1.143 0.021,2.28 0.036,3.434 0.019,1.468 0.038,2.97 0.038,4.493 -10e-4,0.959 0.772,1.736 1.731,1.723 7.931,-0.104 15.971,-0.106 23.768,-0.108 h 0.409 c 0.721,0.003 1.027,-0.163 1.483,-0.799 1.323,-1.896 2.719,-3.806 4.1,-5.697 1.108,-1.516 2.221,-3.039 3.316,-4.584 1.209,-1.692 2.855,-2.51 4.9,-2.427 1.563,0.08 3.2,0.047 4.824,0.014 0.989,-0.019 1.978,-0.039 2.976,-0.033 1.713,0.019 3.414,0.021 5.221,0.023 1.797,0.003 3.639,0.005 5.589,0.026 l 0.765,0.008 c 1.391,0.015 2.187,1.593 1.372,2.721 l -1.917,2.655 c -2.503,3.465 -4.89,6.771 -7.316,10.096 -0.547,0.75 -0.401,1.804 0.339,2.365 4.339,3.285 7.34,7.756 9.139,13.598" /></g><g
           transform="translate(993.7743,508.0446)"
           id="g32"><path
             id="path34"
             style="fill:currentColor;fill-opacity:1;fill-rule:nonzero;stroke:none"
             d="m 0,0 -0.025,0.089 c -0.908,3.245 -1.766,6.309 -2.688,9.426 -0.131,0.493 -0.49,1.192 -1.458,1.715 -0.791,0.427 -2.011,0.756 -3.032,0.409 -9.927,-2.806 -20.025,-5.73 -29.79,-8.557 l -1.505,-0.435 c -3.232,-0.938 -6.471,-1.86 -9.793,-2.806 l -0.166,-0.047 c -0.156,-0.044 -0.312,-0.089 -0.468,-0.133 -1.484,-0.423 -2.729,1.174 -1.955,2.509 2.557,4.405 5.111,8.812 7.664,13.218 l 0.443,0.765 c 7.551,13.034 15.36,26.511 23.121,39.739 2.094,3.588 2.434,6.62 1.138,10.138 -0.667,1.812 -1.177,3.692 -1.717,5.683 -0.293,1.081 -0.59,2.173 -0.916,3.27 l -0.11,0.371 c -0.266,0.895 -1.199,1.414 -2.1,1.166 l -0.374,-0.103 c -0.687,-0.188 -1.328,-0.359 -1.973,-0.53 -1.009,-0.27 -1.94,-0.518 -2.854,-0.787 -7.77,-2.261 -15.53,-4.499 -23.29,-6.737 l -0.076,-0.022 c -7.703,-2.222 -15.407,-4.444 -23.141,-6.694 -9.929,-2.916 -20.196,-5.93 -30.375,-8.851 -0.905,-0.258 -2.023,-0.696 -2.638,-1.807 -0.619,-1.119 -0.384,-2.307 -0.149,-3.117 1.269,-4.07 2.559,-8.587 3.948,-13.826 0.144,-0.491 0.583,-1.986 1.964,-2.675 1.148,-0.573 2.375,-0.315 3.197,-0.073 11.893,3.509 23.968,7.005 35.645,10.385 l 1.816,0.526 c 3.199,0.952 6.284,1.836 9.19,2.657 l -1.063,-1.849 c -1.049,-1.822 -2.068,-3.593 -3.066,-5.346 l -1.273,-2.196 c -9.824,-16.966 -19.982,-34.509 -29.899,-51.719 -0.783,-1.259 -1.636,-3.11 -1.254,-4.766 0.493,-2.301 1.163,-4.527 1.814,-6.692 0.323,-1.069 0.645,-2.139 0.932,-3.166 0.259,-1.03 0.782,-1.783 1.551,-2.239 0.605,-0.358 1.314,-0.499 2.108,-0.418 0.281,0.029 0.571,0.083 0.93,0.177 l 31.496,9.142 c 6.248,1.821 12.517,3.632 18.786,5.444 l 0.075,0.022 c 6.503,1.879 13.007,3.759 19.475,5.645 2.428,0.693 4.846,1.41 7.322,2.144 1.645,0.488 3.316,0.984 5.033,1.485 l 0.379,0.111 c 0.907,0.264 1.429,1.213 1.168,2.121 l -0.11,0.379 C 1.268,-4.528 0.63,-2.25 0,0" /></g><g
           transform="translate(1060.855,603.473)"
           id="g36"><path
             id="path38"
             style="fill:currentColor;fill-opacity:1;fill-rule:nonzero;stroke:none"
             d="M 0,0 V 0 C -0.028,0.043 -0.054,0.089 -0.078,0.134 -1.114,2.119 -2.141,4.015 -3.142,5.862 -3.748,6.978 -4.345,8.08 -4.941,9.194 l -0.08,0.149 c -1.791,3.303 -2.79,3.594 -6.293,1.831 l -0.079,-0.04 c -4.963,-2.561 -9.946,-5.115 -14.933,-7.67 l -0.092,-0.047 c -7.649,-3.919 -15.556,-7.97 -23.355,-12.036 -0.298,-0.159 -0.502,-0.244 -0.631,-0.288 -0.05,0.088 -0.116,0.218 -0.193,0.406 -0.576,1.329 -1.304,2.584 -2.008,3.798 -0.216,0.373 -0.434,0.749 -0.641,1.115 l -0.1,0.18 c -0.136,0.244 -0.288,0.52 -0.413,0.757 0.291,0.155 0.649,0.334 0.926,0.472 3.907,1.97 7.799,3.96 11.69,5.949 l 0.07,0.036 c 5.503,2.814 11.193,5.724 16.771,8.497 1.038,0.482 2.28,1.211 2.686,2.588 0.401,1.364 -0.232,2.593 -0.743,3.4 -1.155,1.815 -2.135,3.719 -3.174,5.735 l -0.727,1.401 c -1.615,3.041 -2.649,3.352 -5.82,1.756 l -0.082,-0.041 c -4.864,-2.515 -9.745,-5.015 -14.628,-7.514 -4.885,-2.502 -9.772,-5.004 -14.668,-7.536 l -0.196,-0.107 c -0.013,-0.006 -0.025,-0.013 -0.037,-0.02 -0.44,0.832 -0.886,1.657 -1.332,2.48 -0.765,1.415 -1.556,2.875 -2.324,4.393 0.031,0.078 0.068,0.155 0.083,0.176 0.092,0.078 0.449,0.231 0.643,0.315 0.233,0.099 0.464,0.2 0.688,0.314 12.217,6.265 24.648,12.577 36.685,18.687 l 1.346,0.683 c 0.936,0.461 2.059,1.154 2.433,2.433 0.373,1.279 -0.213,2.461 -0.69,3.246 -1.591,2.546 -2.944,5.217 -4.055,7.487 -0.369,0.773 -1.001,1.849 -2.232,2.258 -1.25,0.416 -2.476,-0.105 -3.283,-0.528 -19.058,-9.767 -36.051,-18.446 -51.951,-26.533 -0.908,-0.461 -2.001,-1.151 -2.392,-2.412 -0.393,-1.266 0.13,-2.455 0.559,-3.241 8.69,-15.835 17.632,-32.29 27.327,-50.282 0.4,-0.807 1.007,-1.782 2.151,-2.165 0.398,-0.134 0.828,-0.178 1.277,-0.132 0.704,0.071 1.329,0.352 1.745,0.56 17.55,9.032 34.982,17.94 54.314,27.814 l 0.04,0.02 C 0.247,-1.999 0.554,-0.854 0,0" /></g></g></g></g></svg>